<svg width="300px" height="170px" viewBox="0 0 300 170" version="1.1" xmlns="http://www.w3.org/2000/svg" xmlns:xlink="http://www.w3.org/1999/xlink"> <g id="switch" stroke="none" stroke-width="1" fill="none" fill-rule="evenodd"> <g id="jiaohuanji2333"> <path d="M0,101.597633 L300,101.597633 L300,159.744459 C300,163.310534 299.628698,164.603679 298.931469,165.907383 C298.234241,167.211087 297.211087,168.234241 295.907383,168.931469 C294.603679,169.628698 293.310534,170 289.744459,170 L10.2555408,170 C6.68946584,170 5.39632089,169.628698 4.09261719,168.931469 C2.78891348,168.234241 1.76575919,167.211087 1.06853082,165.907383 C0.371302445,164.603679 0,163.310534 0,159.744459 L0,101.597633 L0,101.597633 Z" id="Rectangle" fill="#6E6E96"></path> <path d="M33.7463232,-4.53373079e-15 L266.253677,9.81017108e-16 C270.576652,-4.99500465e-16 272.147809,0.366729803 273.784301,1.09532813 C275.420794,1.82392645 276.769727,2.9143933 277.825086,4.36186738 C278.880446,5.80934146 279.568279,7.26876242 280.474189,11.4957519 L300,102.60355 L300,102.60355 L0,102.60355 L19.5258113,11.4957519 C20.4317205,7.26876242 21.1195544,5.80934146 22.1749137,4.36186738 C23.2302729,2.9143933 24.5792057,1.82392645 26.2156986,1.09532813 C27.8521914,0.366729803 29.4233484,-3.05321321e-15 33.7463232,-4.53373079e-15 Z" id="Rectangle" fill="#A8A8BD"></path> <polyline id="Path" fill="#6E6E96" fill-rule="nonzero" points="199.033082 89.5384615 242 69.7857207 200.640291 51.3136095 200.108876 64.4562321 138.542402 64.4562321 137 77.4177556 199.57746 77.4177556 199.033082 89.5384615"></polyline> <polygon id="Path" fill="#6E6E96" fill-rule="nonzero" points="106.174742 47.2652238 168 47.2652238 168 35.2071005 107.18657 35.2071005 107.990843 23.1360947 66 41.1717492 105.305609 59.3491124"></polygon> <path d="M20.7394224,117.692308 L80.2605776,117.692308 C86.0868592,117.692308 89,120.712293 89,126.752263 L89,126.738861 C89,132.778831 86.0868592,135.798817 80.2605776,135.798817 L20.7394224,135.798817 C14.9131408,135.798817 12,132.778831 12,126.738861 L12,126.752263 C12,120.712293 14.9131408,117.692308 20.7394224,117.692308 Z" id="Path" fill="#A8A8BD" fill-rule="nonzero"></path> <path d="M108.739422,117.692308 L168.260578,117.692308 C174.086859,117.692308 177,120.712293 177,126.752263 L177,126.738861 C177,132.778831 174.086859,135.798817 168.260578,135.798817 L108.739422,135.798817 C102.913141,135.798817 100,132.778831 100,126.738861 L100,126.752263 C100,120.712293 102.913141,117.692308 108.739422,117.692308 Z" id="Path-Copy-2" fill="#A8A8BD" fill-rule="nonzero"></path> <path d="M234,126.242604 C234,130.964802 237.80558,134.792899 242.5,134.792899 C247.19442,134.792899 251,130.964802 251,126.242604 C251,121.520406 247.19442,117.692308 242.5,117.692308 C237.80558,117.692308 234,121.520406 234,126.242604 Z" id="Path" fill="#E68C7C" fill-rule="nonzero"></path> <path d="M207,126.242604 C207,130.964802 210.80558,134.792899 215.5,134.792899 C220.19442,134.792899 224,130.964802 224,126.242604 C224,121.520406 220.19442,117.692308 215.5,117.692308 C210.80558,117.692308 207,121.520406 207,126.242604 Z" id="Path-Copy-3" fill="#9E9E9E" fill-rule="nonzero"></path> <path d="M261,126.242604 C261,130.964802 264.80558,134.792899 269.5,134.792899 C274.19442,134.792899 278,130.964802 278,126.242604 C278,121.520406 274.19442,117.692308 269.5,117.692308 C264.80558,117.692308 261,121.520406 261,126.242604 L261,126.242604 Z" id="Path" fill="#48B2B1" fill-rule="nonzero"></path> <path d="M21.7394226,139.822485 L81.2605776,139.822485 C87.0868592,139.822485 90,142.84247 90,148.882441 L90,148.869039 C90,154.909009 87.0868592,157.928994 81.2605776,157.928994 L21.7394226,157.928994 C15.913141,157.928994 13,154.909009 13,148.869039 L13,148.882441 C13,142.842471 15.9131409,139.822485 21.7394226,139.822485 Z" id="Path" fill="#A8A8BD" fill-rule="nonzero"></path> <path d="M108.739423,139.822485 L168.260578,139.822485 C174.086859,139.822485 177,142.84247 177,148.882441 L177,148.869039 C177,154.909009 174.086859,157.928994 168.260578,157.928994 L108.739423,157.928994 C102.913141,157.928994 100,154.909009 100,148.869039 L100,148.882441 C100,142.842471 102.913141,139.822485 108.739423,139.822485 Z" id="Path-Copy" fill="#A8A8BD" fill-rule="nonzero"></path> <path d="M235,149.378698 C235,154.100896 238.80558,157.928994 243.5,157.928994 C248.19442,157.928994 252,154.100896 252,149.378698 C252,144.6565 248.19442,140.828402 243.5,140.828402 C238.80558,140.828402 235,144.6565 235,149.378698 L235,149.378698 Z" id="Path" fill="#E68C7C" fill-rule="nonzero"></path> <path d="M207,149.378698 C207,154.100896 210.80558,157.928994 215.5,157.928994 C220.19442,157.928994 224,154.100896 224,149.378698 C224,144.6565 220.19442,140.828402 215.5,140.828402 C210.80558,140.828402 207,144.6565 207,149.378698 L207,149.378698 Z" id="Path-Copy-4" fill="#9E9E9E" fill-rule="nonzero"></path> <path d="M262,149.378698 C262,154.100896 265.80558,157.928994 270.5,157.928994 C275.19442,157.928994 279,154.100896 279,149.378698 C279,144.6565 275.19442,140.828402 270.5,140.828402 C265.80558,140.828402 262,144.6565 262,149.378698 L262,149.378698 Z" id="Path" fill="#48B2B1" fill-rule="nonzero"></path> </g> </g> </svg>
